<?xml version="1.0" standalone="no"?>
<!DOCTYPE svg PUBLIC "-//W3C//DTD SVG 20010904//EN"
 "http://www.w3.org/TR/2001/REC-SVG-20010904/DTD/svg10.dtd">
<svg version="1.0" xmlns="http://www.w3.org/2000/svg"
 width="1017.000000pt" height="1017.000000pt" viewBox="0 0 1017.000000 1017.000000"
 preserveAspectRatio="xMidYMid meet">
<metadata>
Created by potrace 1.14, written by Peter Selinger 2001-2017
</metadata>
<g transform="translate(0.000000,1017.000000) scale(0.100000,-0.100000)"
fill="#000000" stroke="none">
<path d="M4584 9676 c-22 -24 -67 -55 -100 -71 -32 -15 -78 -41 -101 -57 l-43
-29 0 -89 c0 -68 -5 -104 -23 -153 -18 -48 -21 -70 -14 -88 28 -71 38 -293 19
-426 -17 -126 -61 -195 -165 -262 -34 -22 -76 -55 -93 -73 -37 -39 -89 -130
-99 -173 -20 -90 -82 -226 -144 -319 -97 -144 -94 -134 -68 -197 22 -53 22
-63 25 -607 3 -606 3 -612 -57 -737 -15 -33 -38 -82 -51 -108 -42 -90 -159
-177 -310 -232 -41 -15 -106 -42 -145 -60 -118 -54 -219 -85 -280 -85 -49 0
-60 -4 -76 -24 -11 -14 -33 -28 -50 -31 -17 -4 -48 -22 -68 -40 -59 -53 -122
-75 -213 -75 -75 0 -81 2 -109 29 -16 17 -29 40 -29 54 0 60 -12 88 -46 102
-18 7 -39 23 -46 34 -7 12 -17 21 -23 21 -12 0 -134 123 -158 158 -8 13 -30
31 -48 40 -26 13 -42 34 -68 87 -28 60 -34 67 -41 49 -5 -12 -19 -30 -33 -40
-20 -15 -26 -30 -30 -80 -5 -60 -4 -61 27 -77 17 -8 41 -18 53 -22 35 -10 63
-53 63 -97 0 -30 -7 -46 -29 -69 -25 -25 -37 -29 -83 -29 -29 1 -71 7 -93 15
-22 8 -41 15 -42 15 -2 0 -3 -10 -3 -22 0 -19 -12 -56 -51 -153 -15 -40 -31
-155 -25 -182 21 -83 53 -149 97 -198 52 -56 69 -90 69 -136 0 -28 2 -29 48
-30 26 0 56 -3 67 -5 11 -3 81 -9 155 -14 77 -4 154 -15 179 -24 24 -9 65 -16
90 -16 63 0 145 -25 202 -61 42 -27 49 -28 101 -19 31 5 74 14 95 20 23 7 86
10 159 8 108 -3 125 -6 173 -30 45 -24 65 -28 137 -28 78 0 84 1 84 21 0 11
13 34 29 50 17 16 33 39 37 52 22 73 126 137 221 137 47 0 59 -4 84 -29 25
-25 29 -37 29 -83 0 -30 -4 -58 -10 -64 -13 -13 8 -70 43 -115 33 -44 36 -102
7 -139 -15 -19 -20 -41 -20 -96 0 -47 -6 -82 -17 -105 -11 -22 -20 -72 -25
-139 -4 -58 -13 -174 -20 -258 -13 -149 -14 -155 -41 -178 -21 -18 -40 -24
-77 -24 -27 0 -51 -4 -54 -9 -4 -5 -28 -15 -54 -21 -36 -10 -53 -21 -70 -46
-42 -65 -250 -191 -349 -212 -27 -6 -75 -16 -108 -22 l-60 -12 -42 -92 c-51
-110 -63 -180 -56 -313 5 -94 4 -107 -26 -197 -18 -56 -31 -117 -31 -146 0
-28 -9 -83 -20 -122 -13 -48 -20 -103 -20 -163 0 -75 -5 -107 -30 -180 -16
-48 -37 -99 -45 -111 -8 -13 -20 -59 -26 -101 -6 -43 -17 -104 -25 -135 -8
-32 -14 -93 -14 -136 0 -139 -64 -310 -149 -400 -40 -41 -54 -103 -52 -218 2
-71 -2 -102 -19 -147 -26 -69 -93 -162 -146 -201 -31 -22 -46 -45 -68 -103
-38 -98 -79 -157 -132 -194 -61 -42 -93 -75 -100 -106 -6 -21 -1 -32 25 -55
30 -27 51 -33 96 -28 27 3 109 44 132 67 10 10 59 36 108 57 87 38 180 98 213
137 9 11 22 19 28 19 6 0 19 20 29 45 22 58 83 121 160 164 68 39 111 84 189
199 53 80 54 82 43 123 -6 24 -23 56 -38 72 -56 58 -74 112 -74 217 0 86 3
101 29 150 16 30 33 77 37 104 11 64 52 147 95 191 19 19 34 44 34 54 0 10 10
33 23 52 66 99 71 112 77 204 6 83 10 96 50 164 41 69 44 80 52 179 6 76 16
124 34 167 14 33 30 80 35 103 5 24 28 87 51 139 63 140 105 161 272 134 89
-15 116 -81 85 -206 -9 -36 -8 -48 5 -67 13 -18 16 -51 16 -173 l1 -150 44
-27 c52 -32 85 -80 85 -125 l0 -33 468 1 c681 0 1221 14 1302 34 36 8 97 20
135 26 39 5 80 12 92 15 21 4 22 8 25 207 2 165 6 208 20 232 15 29 15 32 -3
54 -15 18 -19 39 -19 92 0 119 35 138 256 139 119 0 134 -2 158 -21 15 -12 44
-31 65 -43 21 -11 61 -46 89 -77 55 -62 72 -113 72 -215 0 -45 6 -63 30 -100
41 -59 57 -106 65 -200 8 -82 16 -100 83 -179 18 -22 54 -82 80 -133 41 -84
46 -100 50 -180 5 -87 5 -87 47 -128 47 -46 83 -113 92 -171 3 -21 12 -45 19
-53 27 -31 44 -91 44 -150 0 -51 -5 -68 -29 -104 -50 -72 -68 -227 -31 -261
11 -10 23 -35 26 -56 6 -35 10 -39 58 -54 93 -30 183 -86 283 -173 96 -84 143
-131 143 -143 0 -4 19 -19 43 -34 23 -16 51 -38 62 -49 11 -12 40 -27 65 -35
25 -7 70 -28 100 -46 38 -23 72 -35 108 -38 28 -2 52 -2 52 1 0 7 -59 62 -67
62 -14 1 -69 54 -93 90 -14 19 -43 58 -66 86 -42 53 -74 130 -95 234 -6 30
-22 83 -35 117 -13 34 -24 70 -24 81 0 11 -18 41 -40 68 -74 90 -129 223 -130
319 -1 22 -15 46 -54 89 -82 89 -104 141 -127 302 -15 103 -26 150 -44 180
-43 73 -75 175 -97 303 -11 70 -24 146 -28 171 -5 25 -18 74 -30 110 -18 55
-21 83 -18 175 3 102 5 114 35 166 l31 56 -19 29 c-10 16 -24 45 -30 64 -7 19
-25 55 -42 79 -16 24 -52 98 -79 165 -62 150 -60 147 -121 229 -39 53 -62 74
-108 98 -45 22 -59 26 -59 15 0 -8 -13 -24 -29 -35 -41 -29 -170 -30 -232 -1
-30 13 -66 20 -111 20 -77 0 -186 37 -228 76 -21 21 -25 36 -31 114 -4 49 -11
96 -18 103 -6 8 -23 49 -37 93 -22 66 -27 104 -31 229 -4 97 -10 159 -19 177
-11 20 -14 78 -14 229 l0 201 34 34 c32 32 38 34 101 34 64 0 69 -2 100 -35
19 -19 44 -57 57 -84 19 -43 27 -50 51 -51 45 0 87 -49 87 -100 0 -36 3 -41
18 -35 140 55 279 85 392 85 60 0 92 5 107 15 12 8 56 29 98 46 67 27 97 32
224 40 147 10 448 26 531 28 41 1 47 4 67 39 47 78 71 139 78 197 8 69 25 107
57 129 33 24 38 131 9 223 -25 81 -28 85 -64 101 -44 19 -66 14 -101 -23 -30
-31 -39 -35 -85 -35 -45 0 -57 4 -82 29 -35 35 -40 94 -11 132 10 13 24 49 30
79 7 30 25 71 40 90 46 58 73 108 87 159 11 43 11 49 -5 59 -14 9 -27 2 -71
-36 -30 -26 -66 -55 -80 -64 -15 -9 -55 -58 -90 -109 -77 -111 -111 -149 -136
-149 -11 -1 -32 -23 -53 -57 -62 -98 -151 -143 -284 -143 -104 0 -168 19 -231
70 -27 22 -61 44 -74 50 -13 6 -36 19 -51 30 -22 16 -45 20 -107 21 -134 1
-237 14 -285 37 -65 32 -120 83 -153 143 l-30 54 3 385 c1 220 -2 430 -8 490
-6 58 -14 206 -18 330 l-8 225 -33 65 c-18 36 -37 74 -43 85 -6 11 -38 72 -71
135 -32 63 -78 144 -101 180 -23 36 -51 79 -61 95 -10 17 -33 75 -51 130 l-31
100 -59 5 c-118 11 -174 58 -174 149 0 76 -8 101 -32 101 -11 0 -33 13 -49 29
-57 58 -31 168 57 235 25 19 50 36 56 38 5 2 -5 28 -22 58 -18 30 -39 72 -46
94 -17 46 -19 258 -4 303 9 24 5 46 -20 122 -16 51 -30 101 -30 111 0 25 -53
31 -360 35 l-255 4 -41 -43z"/>
<path d="M8125 7850 c3 -5 13 -10 21 -10 8 0 14 5 14 10 0 6 -9 10 -21 10 -11
0 -17 -4 -14 -10z"/>
</g>
</svg>
